<?xml version="1.0" encoding="UTF-8"?>
<svg xmlns="http://www.w3.org/2000/svg" xmlns:xlink="http://www.w3.org/1999/xlink" width="46px" height="46px" viewBox="0 0 46 46" version="1.1">
<defs>
<linearGradient id="linear0" gradientUnits="userSpaceOnUse" x1="17.7207" y1="75.415" x2="118.625" y2="44.7097" gradientTransform="matrix(0.359375,0,0,0.359375,0,0)">
<stop offset="0.2" style="stop-color:rgb(70.980392%,70.980392%,70.980392%);stop-opacity:1;"/>
<stop offset="0.81" style="stop-color:rgb(40.784314%,40.784314%,40.784314%);stop-opacity:1;"/>
</linearGradient>
</defs>
<g id="surface1">
<path style=" stroke:none;fill-rule:nonzero;fill:rgb(70.980392%,70.980392%,70.980392%);fill-opacity:1;" d="M 10.324219 31.410156 C 10.90625 31.410156 11.378906 30.929688 11.378906 30.339844 C 11.378906 29.746094 10.90625 29.265625 10.324219 29.265625 C 9.738281 29.265625 9.265625 29.746094 9.265625 30.339844 C 9.265625 30.929688 9.738281 31.410156 10.324219 31.410156 Z M 10.324219 31.410156 "/>
<path style=" stroke:none;fill-rule:nonzero;fill:rgb(40.784314%,40.784314%,40.784314%);fill-opacity:1;" d="M 35.6875 16.804688 C 36.273438 16.804688 36.746094 16.324219 36.746094 15.730469 C 36.746094 15.140625 36.273438 14.660156 35.6875 14.660156 C 35.105469 14.660156 34.632812 15.140625 34.632812 15.730469 C 34.632812 16.324219 35.105469 16.804688 35.6875 16.804688 Z M 35.6875 16.804688 "/>
<path style=" stroke:none;fill-rule:nonzero;fill:url(#linear0);" d="M 35.265625 11.085938 C 35.132812 10.953125 34.976562 10.847656 34.808594 10.773438 C 34.636719 10.703125 34.453125 10.667969 34.269531 10.667969 C 34.085938 10.667969 33.902344 10.703125 33.730469 10.773438 C 33.558594 10.847656 33.40625 10.953125 33.273438 11.085938 L 31.183594 13.207031 L 29.199219 15.222656 C 28.933594 15.492188 28.574219 15.640625 28.203125 15.640625 C 27.828125 15.640625 27.472656 15.492188 27.207031 15.222656 C 26.941406 14.953125 26.796875 14.589844 26.796875 14.210938 C 26.796875 13.832031 26.941406 13.46875 27.207031 13.199219 L 28.304688 12.089844 C 28.433594 11.957031 28.539062 11.796875 28.609375 11.625 C 28.679688 11.453125 28.714844 11.265625 28.714844 11.078125 C 28.714844 10.890625 28.679688 10.707031 28.609375 10.53125 C 28.539062 10.359375 28.433594 10.203125 28.304688 10.070312 C 28.039062 9.800781 27.679688 9.652344 27.308594 9.652344 C 26.933594 9.652344 26.574219 9.800781 26.3125 10.070312 L 12.371094 24.21875 C 12.109375 24.488281 11.960938 24.851562 11.960938 25.230469 C 11.960938 25.609375 12.109375 25.972656 12.371094 26.242188 C 12.636719 26.507812 12.992188 26.660156 13.367188 26.660156 C 13.742188 26.660156 14.097656 26.507812 14.363281 26.242188 L 15.898438 24.679688 C 16.164062 24.410156 16.523438 24.261719 16.894531 24.261719 C 17.269531 24.261719 17.628906 24.410156 17.890625 24.679688 C 18.15625 24.945312 18.304688 25.308594 18.304688 25.6875 C 18.304688 26.066406 18.15625 26.429688 17.890625 26.699219 L 10.882812 33.828125 C 10.75 33.960938 10.644531 34.117188 10.574219 34.289062 C 10.503906 34.464844 10.46875 34.648438 10.46875 34.839844 C 10.46875 35.027344 10.503906 35.210938 10.574219 35.386719 C 10.644531 35.558594 10.75 35.714844 10.882812 35.847656 C 11.011719 35.980469 11.167969 36.085938 11.335938 36.160156 C 11.507812 36.230469 11.691406 36.269531 11.875 36.269531 C 12.058594 36.269531 12.242188 36.230469 12.414062 36.160156 C 12.585938 36.085938 12.738281 35.980469 12.871094 35.847656 L 15.230469 33.453125 C 15.496094 33.183594 15.855469 33.035156 16.226562 33.035156 C 16.601562 33.035156 16.960938 33.183594 17.222656 33.453125 C 17.488281 33.71875 17.847656 33.871094 18.21875 33.871094 C 18.59375 33.871094 18.953125 33.71875 19.214844 33.453125 L 21.300781 31.332031 C 21.5625 31.066406 21.921875 30.914062 22.296875 30.914062 C 22.667969 30.914062 23.027344 31.066406 23.292969 31.332031 C 23.421875 31.464844 23.578125 31.570312 23.75 31.644531 C 23.917969 31.714844 24.101562 31.753906 24.289062 31.753906 C 24.472656 31.753906 24.65625 31.714844 24.828125 31.644531 C 24.996094 31.570312 25.152344 31.464844 25.285156 31.332031 L 35.183594 21.273438 C 35.316406 21.140625 35.421875 20.984375 35.492188 20.8125 C 35.5625 20.636719 35.597656 20.453125 35.597656 20.265625 C 35.597656 20.074219 35.5625 19.890625 35.492188 19.714844 C 35.421875 19.542969 35.316406 19.386719 35.183594 19.253906 C 35.054688 19.121094 34.898438 19.015625 34.730469 18.941406 C 34.558594 18.871094 34.375 18.835938 34.191406 18.835938 C 34.003906 18.835938 33.824219 18.871094 33.652344 18.941406 C 33.480469 19.015625 33.328125 19.121094 33.195312 19.253906 L 33.09375 19.359375 L 31.699219 20.765625 C 31.566406 20.898438 31.414062 21.003906 31.242188 21.074219 C 31.070312 21.148438 30.886719 21.183594 30.703125 21.183594 C 30.519531 21.183594 30.335938 21.148438 30.164062 21.074219 C 29.992188 21.003906 29.839844 20.898438 29.707031 20.765625 C 29.578125 20.632812 29.472656 20.476562 29.402344 20.300781 C 29.332031 20.128906 29.296875 19.945312 29.296875 19.753906 C 29.296875 19.566406 29.332031 19.382812 29.402344 19.210938 C 29.472656 19.035156 29.578125 18.878906 29.707031 18.746094 L 31.441406 16.988281 L 35.265625 13.105469 C 35.527344 12.835938 35.675781 12.472656 35.675781 12.09375 C 35.675781 11.714844 35.527344 11.351562 35.265625 11.085938 Z M 35.265625 11.085938 "/>
</g>
</svg>
