<svg width="17" height="16" viewBox="0 0 17 16" fill="none" xmlns="http://www.w3.org/2000/svg">
<path d="M1.37232 0.874822C1.04437 1.20277 1.02527 1.72031 1.32988 2.02491L5.87679 6.57177L4.80946 7.63908C4.54114 7.9074 4.70903 8.33764 5.07152 8.31852L8.28029 8.2001C8.51031 8.19162 8.69516 8.00677 8.70365 7.77676L8.82207 4.56802C8.83523 4.21149 8.40498 4.04361 8.13666 4.31193L7.06933 5.37924L2.52242 0.832377C2.21781 0.527777 1.70027 0.546876 1.37232 0.874822Z" fill="url(#paint0_linear_1849_11673)"/>
<path d="M2.76688 6.81745C2.14431 6.19488 1.10027 6.44724 1.0215 7.32415C0.829246 9.46433 1.55226 11.6712 3.19052 13.3095C6.12294 16.2419 10.8773 16.2419 13.8098 13.3095C16.7422 10.3771 16.7422 5.62278 13.8098 2.69039C12.1717 1.05233 9.96507 0.329311 7.8251 0.521321C6.9481 0.60001 6.69568 1.6441 7.3183 2.26671C7.58483 2.53325 7.96113 2.65025 8.3379 2.63892C9.76411 2.59603 11.2042 3.11886 12.2927 4.20741C14.3873 6.30197 14.3873 9.69792 12.2927 11.7925C10.1981 13.887 6.80214 13.887 4.70756 11.7925C3.61886 10.7038 3.09603 9.26352 3.13907 7.83715C3.15045 7.46035 3.03345 7.08401 2.76688 6.81745Z" fill="url(#paint1_linear_1849_11673)"/>
<defs>
<linearGradient id="paint0_linear_1849_11673" x1="0.991211" y1="18.4251" x2="15.112" y2="-2.11007" gradientUnits="userSpaceOnUse">
<stop stop-color="#279ECC"/>
<stop offset="1" stop-color="#A13E99"/>
</linearGradient>
<linearGradient id="paint1_linear_1849_11673" x1="0.991211" y1="18.4251" x2="15.112" y2="-2.11007" gradientUnits="userSpaceOnUse">
<stop stop-color="#279ECC"/>
<stop offset="1" stop-color="#A13E99"/>
</linearGradient>
</defs>
</svg>
