<svg width="17" height="16" viewBox="0 0 17 16" fill="none" xmlns="http://www.w3.org/2000/svg">
<path d="M8.42732 8.07396C8.75527 8.40191 9.27281 8.42101 9.57742 8.11641L14.1243 3.56949L15.1917 4.63682C15.46 4.90514 15.8902 4.73726 15.8711 4.37476L15.7527 1.16599C15.7442 0.93597 15.5594 0.751126 15.3293 0.742637L12.1206 0.624216C11.764 0.611058 11.5961 1.0413 11.8645 1.30963L12.9318 2.37695L8.38488 6.92387C8.08027 7.22847 8.09937 7.74602 8.42732 8.07396Z" fill="url(#paint0_linear_1014_2665)"/>
<path d="M9.68276 2.26689C10.3053 1.64432 10.053 0.600295 9.17606 0.521509C7.03582 0.329219 4.82883 1.05222 3.19053 2.69053C0.258106 5.62294 0.258106 10.3773 3.19052 13.3098C6.12294 16.2422 10.8773 16.2422 13.8098 13.3098C15.4478 11.6717 16.1708 9.46515 15.9789 7.32522C15.9002 6.44822 14.8561 6.19578 14.2334 6.8184C13.9669 7.08494 13.8499 7.46122 13.8612 7.83799C13.9041 9.26417 13.3813 10.7042 12.2927 11.7927C10.1981 13.8873 6.80214 13.8873 4.70756 11.7927C2.61297 9.69814 2.61297 6.30214 4.70756 4.20756C5.79628 3.11883 7.23661 2.59601 8.66302 2.63908C9.03984 2.65046 9.41619 2.53346 9.68276 2.26689Z" fill="url(#paint1_linear_1014_2665)"/>
<defs>
<linearGradient id="paint0_linear_1014_2665" x1="-1.9251" y1="0.491211" x2="18.6101" y2="14.6123" gradientUnits="userSpaceOnUse">
<stop stop-color="#279ECC"/>
<stop offset="1" stop-color="#A13E99"/>
</linearGradient>
<linearGradient id="paint1_linear_1014_2665" x1="-1.9251" y1="0.491211" x2="18.6101" y2="14.6123" gradientUnits="userSpaceOnUse">
<stop stop-color="#279ECC"/>
<stop offset="1" stop-color="#A13E99"/>
</linearGradient>
</defs>
</svg>
